<svg width="81" height="24" viewBox="0 0 81 24" fill="none" xmlns="http://www.w3.org/2000/svg">
<path d="M0.93934 10.9393C0.353553 11.5251 0.353553 12.4749 0.93934 13.0607L10.4853 22.6066C11.0711 23.1924 12.0208 23.1924 12.6066 22.6066C13.1924 22.0208 13.1924 21.0711 12.6066 20.4853L4.12132 12L12.6066 3.51472C13.1924 2.92893 13.1924 1.97918 12.6066 1.3934C12.0208 0.807612 11.0711 0.807612 10.4853 1.3934L0.93934 10.9393ZM81 10.5L2 10.5V13.5L81 13.5V10.5Z" fill="black"/>
<line x1="11.5" y1="2" x2="11.5" y2="21" stroke="black" stroke-width="3"/>
<path d="M9.45512 14.0326C9.45512 14.907 9.10262 15.6233 9.10262 16.5001" stroke="black" stroke-width="3" stroke-linecap="round"/>
<path d="M8.04512 10.8601C7.34265 10.9479 7.69262 13.6163 7.69262 14.2089C7.69262 14.9802 7.9292 12.4947 8.24095 12.0939C9.04738 11.057 9.10261 10.5999 9.10261 9.27389C9.10261 7.41813 7.66466 9.64033 7.34012 10.3706C6.71004 11.7882 6.63512 12.8086 6.63512 14.3851C6.63512 14.9314 6.73839 17.8433 7.69262 15.991C8.80578 13.8301 10.5126 10.8708 10.5126 8.39264" stroke="black" stroke-width="3" stroke-linecap="round"/>
<path d="M10.8651 7.33514V6.98264" stroke="black" stroke-width="3" stroke-linecap="round"/>
<path d="M10.5126 6.27765C10.5126 7.49772 10.3355 7.66464 9.80762 8.58848C9.33283 9.41937 9.96195 7.02649 10.1601 6.63015" stroke="black" stroke-width="3" stroke-linecap="round"/>
<line x1="79.5" y1="12" x2="79.5" y2="2" stroke="black" stroke-width="3"/>
</svg>
